<svg width="1920" height="1080" viewBox="0 0 1920 1080" fill="none" xmlns="http://www.w3.org/2000/svg">
<g clip-path="url(#clip0_518_577)">
<rect width="1920" height="1080" fill="url(#paint0_linear_518_577)"/>
<g filter="url(#filter0_f_518_577)">
<rect x="323" y="448" width="1244" height="239" rx="90" fill="#E7438A"/>
</g>
<g filter="url(#filter1_f_518_577)">
<ellipse cx="546.637" cy="674.783" rx="118.885" ry="25.5274" fill="#CE5287" fill-opacity="0.8"/>
</g>
<path d="M543.087 464C473.147 464 419 530.556 419 592.6C419 630.954 451.714 678.333 548.728 674.948C641.229 671.722 672.815 645.619 672.815 595.984C672.815 526.044 619.796 464 543.087 464Z" fill="#EB2278"/>
<path d="M625.017 504.05C649.056 525.768 656.693 556.491 642.075 572.671C627.456 588.85 596.119 584.361 572.08 562.642C548.042 540.924 540.405 510.201 555.023 494.021C569.641 477.841 600.979 482.331 625.017 504.05Z" fill="#E4639B"/>
<path d="M661.534 624.185C660.406 562.142 643.515 522.659 600.619 484.305C644.613 507.995 677.327 554.245 661.534 624.185Z" fill="#FFA6CC"/>
<ellipse cx="547.599" cy="656.898" rx="74.4523" ry="12.4087" fill="#B4004D"/>
<path d="M462.995 511.379L492.324 553.117L446.074 561.014M611.899 506.867L578.057 553.117L624.308 565.526M492.324 607.264L508.117 575.679L532.935 603.88L553.24 575.679L574.673 607.264M419 592.6C419 530.556 473.147 464 543.087 464C619.796 464 672.815 526.044 672.815 595.984C672.815 645.619 641.229 671.722 548.728 674.948C451.714 678.333 419 630.954 419 592.6Z" stroke="#FFA6CC" stroke-width="4.51226" stroke-linecap="round" stroke-linejoin="round"/>
<path d="M-56.1067 809.347L25.8222 925.938L-103.373 947.996M359.84 796.742L265.307 925.938L394.502 960.6M25.8222 1077.19L69.9378 988.96L139.262 1067.74L195.982 988.96L255.853 1077.19M-179 1036.23C-179 862.916 -27.7467 677 167.622 677C381.898 677 530 850.311 530 1045.68C530 1184.33 441.769 1257.24 183.378 1266.26C-87.6178 1275.71 -179 1143.36 -179 1036.23Z" stroke="#DDB7C8" stroke-width="25" stroke-linecap="round" stroke-linejoin="round"/>
<path d="M1393.3 -260.356L1442.26 -126.533L1311.76 -138.665M1798.34 -164.876L1673.58 -64.5495L1789.41 2.36988M1403.11 19.5668L1468.56 -54.2399L1515.13 39.7961L1590.31 -21.6172L1625.31 79.1033M1215.87 -73.0137C1260.73 -240.419 1454.95 -380.853 1643.66 -330.288C1850.63 -274.829 1948.83 -69.0916 1898.27 119.62C1862.38 253.545 1758.29 301.14 1506.37 242.97C1242.16 181.962 1188.14 30.4735 1215.87 -73.0137Z" stroke="#DDB7C8" stroke-width="25" stroke-linecap="round" stroke-linejoin="round"/>
<g filter="url(#filter2_f_518_577)">
<path d="M414.584 197.008L444.088 217.594L415.342 233.983M512.175 158.101L500.904 196.915L534.548 193.982M457.149 253.478L459.996 228.736L483.245 241.44L489.899 217.852L511.722 233.615M405.019 261.446C390.054 220.329 409.884 163.161 456.234 146.291C507.069 127.789 557.17 156.117 574.04 202.467C586.012 235.36 571.376 260.277 510.853 284.728C447.378 310.371 414.27 286.863 405.019 261.446Z" stroke="#DDB7C8" stroke-width="6.31171" stroke-linecap="round" stroke-linejoin="round"/>
</g>
<g filter="url(#filter3_f_518_577)">
<path d="M826.545 798.445L831.178 850.398L786.186 833.745M960.705 870.575L907.093 894.228L941.704 928.861M803.496 898.345L833.628 878.45L841.186 916.11L873.584 901.518L876.415 940.444M746.065 847.873C777.784 792.934 859.757 761.682 921.688 797.438C989.612 836.654 1004.84 918.698 969.085 980.629C943.71 1024.58 902.396 1031.55 818.838 987.113C731.203 940.513 726.457 881.835 746.065 847.873Z" stroke="#DDB7C8" stroke-width="9.15087" stroke-linecap="round" stroke-linejoin="round"/>
</g>
<g filter="url(#filter4_f_518_577)">
<path d="M1376.65 1156.77L1424.7 1177.07L1388.87 1208.98M1503.32 1072.18L1499.04 1130.62L1545.87 1116.32M1454.04 1224.02L1450.62 1188.07L1487.42 1199.08L1489.74 1163.63L1525.44 1179.4M1382.51 1251.03C1348.9 1197.23 1359.78 1110.19 1420.43 1072.29C1486.94 1030.73 1566.53 1055.8 1604.43 1116.44C1631.32 1159.48 1618.08 1199.23 1539.62 1252.15C1457.33 1307.65 1403.29 1284.29 1382.51 1251.03Z" stroke="#DDB7C8" stroke-width="9.15087" stroke-linecap="round" stroke-linejoin="round"/>
</g>
<g filter="url(#filter5_f_518_577)">
<path d="M1810.18 633.221L1857.49 655.185L1820.57 685.823M1939.72 553.1L1933.4 611.356L1980.7 598.698M1885.17 703.132L1883.01 667.089L1919.4 679.374L1922.96 644.021L1958.09 661.032M1812.74 727.632C1781.03 672.694 1794.95 586.077 1856.88 550.321C1924.8 511.105 2003.47 538.939 2039.22 600.87C2064.6 644.821 2049.98 684.083 1969.72 734.23C1885.54 786.823 1832.35 761.595 1812.74 727.632Z" stroke="#DDB7C8" stroke-width="9.15087" stroke-linecap="round" stroke-linejoin="round"/>
</g>
<g filter="url(#filter6_f_518_577)">
<path d="M5.17835 34.2209L52.4876 56.1854L15.5702 86.8226M134.725 -45.9001L128.403 12.3556L175.701 -0.301691M80.1696 104.132L78.0062 68.0892L114.399 80.3738L117.962 45.0209L153.088 62.0323M7.74472 128.632C-23.9742 73.6937 -10.0534 -12.9227 51.8776 -48.6786C119.802 -87.8947 198.469 -60.0612 234.225 1.86983C259.6 45.8209 244.976 85.0825 164.716 135.23C80.5423 187.823 27.3528 162.595 7.74472 128.632Z" stroke="#DDB7C8" stroke-width="9.15087" stroke-linecap="round" stroke-linejoin="round"/>
</g>
<g filter="url(#filter7_f_518_577)">
<path d="M1178.58 511.008L1208.09 531.594L1179.34 547.983M1276.18 472.101L1264.9 510.915L1298.55 507.982M1221.15 567.478L1224 542.736L1247.25 555.44L1253.9 531.852L1275.72 547.615M1169.02 575.446C1154.05 534.329 1173.88 477.161 1220.23 460.291C1271.07 441.789 1321.17 470.117 1338.04 516.467C1350.01 549.36 1335.38 574.277 1274.85 598.728C1211.38 624.371 1178.27 600.863 1169.02 575.446Z" stroke="#DDB7C8" stroke-width="6.31171" stroke-linecap="round" stroke-linejoin="round"/>
</g>
<g filter="url(#filter8_f_518_577)">
<path d="M1767.01 335.923L1799.64 351.072L1774.17 372.204M1856.36 280.66L1852 320.841L1884.62 312.111M1818.73 384.143L1817.24 359.283L1842.34 367.756L1844.8 343.372L1869.03 355.105M1768.78 401.042C1746.9 363.149 1756.5 303.406 1799.22 278.744C1846.07 251.695 1900.33 270.893 1924.99 313.609C1942.49 343.924 1932.4 371.004 1877.05 405.592C1818.99 441.868 1782.3 424.467 1768.78 401.042Z" stroke="#DDB7C8" stroke-width="6.31171" stroke-linecap="round" stroke-linejoin="round"/>
</g>
<g filter="url(#filter9_f_518_577)">
<path d="M187.93 454.07L194.19 477.278L172.438 473.321M254.592 476.07L232.153 491.096L250.633 504.044M185.464 501.255L197.547 489.814L203.991 506.301L217.528 497.086L221.928 514.527M155.359 482.944C165.359 455.471 200.061 434.727 231.031 445.999C264.997 458.361 278.475 494.379 267.203 525.349C259.203 547.327 241.01 553.795 199.531 540.315C156.028 526.179 149.178 499.927 155.359 482.944Z" stroke="#DDB7C8" stroke-width="4.21727" stroke-linecap="round" stroke-linejoin="round"/>
</g>
<g filter="url(#filter10_f_518_577)">
<path d="M541.93 -55.9303L548.19 -32.7216L526.438 -36.6791M608.592 -33.93L586.153 -18.9044L604.633 -5.95577M539.464 -8.74527L551.547 -20.1862L557.991 -3.69879L571.528 -12.914L575.928 4.52654M509.359 -27.0562C519.358 -54.5291 554.061 -75.2733 585.031 -64.0014C618.997 -51.6386 632.475 -15.6209 621.203 15.3486C613.203 37.3269 595.01 43.7947 553.531 30.3154C510.028 16.1787 503.178 -10.073 509.359 -27.0562Z" stroke="#DDB7C8" stroke-width="4.21727" stroke-linecap="round" stroke-linejoin="round"/>
</g>
<g filter="url(#filter11_f_518_577)">
<path d="M1022.47 -8.88359L1012.34 12.9194L998.224 -4.0944M1059.39 50.8192L1032.54 47.9058L1038.38 69.7037M990.246 25.6769L1006.86 24.6799L1001.2 41.4521L1017.49 43.0938L1009.65 59.2823M978.955 -7.70085C1004.27 -22.3189 1044.19 -15.9033 1060.67 12.6383C1078.74 43.9419 1065.92 80.1963 1037.38 96.6748C1017.12 108.369 999.026 101.63 975.915 64.6412C951.676 25.8487 963.303 1.33574 978.955 -7.70085Z" stroke="#DDB7C8" stroke-width="4.21727" stroke-linecap="round" stroke-linejoin="round"/>
</g>
<g filter="url(#filter12_f_518_577)">
<path d="M870.443 364.991L884.23 371.392L873.471 380.321M908.196 341.642L906.354 358.619L920.138 354.93M892.297 385.365L891.667 374.861L902.273 378.441L903.311 368.138L913.548 373.096M871.191 392.505C861.947 376.494 866.004 351.252 884.052 340.832C903.847 329.403 926.773 337.515 937.193 355.563C944.588 368.372 940.326 379.813 916.936 394.428C892.406 409.755 876.905 402.402 871.191 392.505Z" stroke="#DDB7C8" stroke-width="2.66681" stroke-linecap="round" stroke-linejoin="round"/>
</g>
<g filter="url(#filter13_f_518_577)">
<path d="M1585.5 419.781L1586.85 434.922L1573.74 430.068M1624.6 440.802L1608.98 447.695L1619.06 457.788M1578.78 448.894L1587.57 443.097L1589.77 454.072L1599.21 449.819L1600.04 461.163M1562.05 434.186C1571.29 418.175 1595.18 409.067 1613.23 419.487C1633.02 430.916 1637.46 454.826 1627.04 472.874C1619.65 485.683 1607.61 487.713 1583.26 474.764C1557.72 461.183 1556.33 444.083 1562.05 434.186Z" stroke="#DDB7C8" stroke-width="2.66681" stroke-linecap="round" stroke-linejoin="round"/>
</g>
<g filter="url(#filter14_f_518_577)">
<path d="M-38.5882 246.487L-24.801 252.888L-35.5597 261.817M-0.834919 223.138L-2.6772 240.115L11.1067 236.426M-16.7337 266.861L-17.3642 256.357L-6.75823 259.937L-5.72009 249.634L4.51676 254.592M-37.8402 274.001C-47.084 257.99 -43.0271 232.748 -24.9787 222.328C-5.18379 210.899 17.7418 219.011 28.162 237.059C35.557 249.868 31.2951 261.309 7.90548 275.924C-16.6251 291.251 -32.1259 283.899 -37.8402 274.001Z" stroke="#DDB7C8" stroke-width="2.66681" stroke-linecap="round" stroke-linejoin="round"/>
</g>
<g filter="url(#filter15_f_518_577)">
<path d="M1206.5 998.781L1207.85 1013.92L1194.74 1009.07M1245.6 1019.8L1229.98 1026.69L1240.06 1036.79M1199.78 1027.89L1208.57 1022.1L1210.77 1033.07L1220.21 1028.82L1221.04 1040.16M1183.05 1013.19C1192.29 997.175 1216.18 988.067 1234.23 998.487C1254.02 1009.92 1258.46 1033.83 1248.04 1051.87C1240.65 1064.68 1228.61 1066.71 1204.26 1053.76C1178.72 1040.18 1177.33 1023.08 1183.05 1013.19Z" stroke="#DDB7C8" stroke-width="2.66681" stroke-linecap="round" stroke-linejoin="round"/>
</g>
<g filter="url(#filter16_f_518_577)">
<path d="M1674.75 980.193L1697.98 986.376L1683.68 1003.23M1727.13 933.462L1728.93 960.408L1749.38 950.878M1714.38 1005.92L1710.52 989.736L1728.02 992.399L1726.8 976.069L1744.11 980.978M1683.47 1022.84C1664.68 1000.44 1664.07 960.015 1689.31 938.831C1717 915.596 1754.93 921.933 1776.12 947.18C1791.15 965.097 1787.66 984.086 1755.24 1013.27C1721.25 1043.88 1695.09 1036.68 1683.47 1022.84Z" stroke="#DDB7C8" stroke-width="4.21727" stroke-linecap="round" stroke-linejoin="round"/>
</g>
<g filter="url(#filter17_f_518_577)">
<path d="M1358.11 754.428L1356.05 778.378L1336.96 767.22M1413.22 797.901L1387 804.346L1399.94 822.834M1339.65 797.924L1354.92 791.306L1355.34 809.003L1371.21 804.973L1369.38 822.867M1317.62 770.421C1336.42 748.025 1376.12 740.401 1401.37 761.585C1429.06 784.82 1429.4 823.275 1408.22 848.521C1393.19 866.438 1373.88 866.293 1339.51 839.44C1303.47 811.277 1306.01 784.266 1317.62 770.421Z" stroke="#DDB7C8" stroke-width="4.21727" stroke-linecap="round" stroke-linejoin="round"/>
</g>
<path d="M751.728 606.085C740.23 606.085 731.516 602.939 725.586 596.648C719.728 590.356 716.799 581.859 716.799 571.156C716.799 563.491 718.029 556.91 720.487 551.414C723.018 545.846 726.851 541.579 731.986 538.615C737.12 535.577 743.665 534.059 751.619 534.059C755.669 534.059 759.357 534.384 762.683 535.035C766.082 535.613 769.228 536.409 772.121 537.421V547.726C769.228 546.569 766.118 545.701 762.792 545.123C759.538 544.472 756.103 544.147 752.487 544.147C743.809 544.147 737.662 546.461 734.047 551.089C730.503 555.717 728.731 562.406 728.731 571.156C728.731 579.328 730.684 585.547 734.589 589.814C738.494 594.008 744.532 596.105 752.704 596.105C756.03 596.105 759.357 595.852 762.683 595.346C766.082 594.767 769.264 593.9 772.229 592.743V603.156C769.336 604.096 766.191 604.819 762.792 605.325C759.465 605.832 755.777 606.085 751.728 606.085ZM799.746 606.085C796.492 606.085 793.455 605.506 790.635 604.349C787.887 603.192 785.681 601.457 784.018 599.142C782.355 596.756 781.523 593.827 781.523 590.356C781.523 585.439 783.186 581.498 786.513 578.533C789.912 575.495 795.118 573.977 802.133 573.977H818.621V571.699C818.621 569.24 818.223 567.288 817.428 565.841C816.704 564.395 815.33 563.346 813.306 562.696C811.353 562.045 808.46 561.719 804.628 561.719C798.553 561.719 792.876 562.623 787.597 564.431V555.645C789.912 554.705 792.732 553.945 796.058 553.367C799.385 552.788 802.964 552.499 806.797 552.499C814.318 552.499 820.031 554.018 823.936 557.055C827.913 560.092 829.902 565.046 829.902 571.916V605H819.814L819.055 599.793C816.957 601.818 814.354 603.373 811.245 604.458C808.207 605.542 804.375 606.085 799.746 606.085ZM802.892 597.624C806.436 597.624 809.509 597.045 812.112 595.888C814.788 594.659 816.957 593.032 818.621 591.007V582.004H802.35C798.879 582.004 796.348 582.691 794.757 584.065C793.238 585.366 792.479 587.391 792.479 590.139C792.479 592.815 793.383 594.731 795.191 595.888C796.998 597.045 799.566 597.624 802.892 597.624ZM855.813 606.085C851.619 606.085 848.437 605.072 846.268 603.047C844.098 600.95 843.014 597.515 843.014 592.743V531.889H854.837V591.658C854.837 593.683 855.199 595.057 855.922 595.78C856.645 596.503 857.73 596.865 859.176 596.865C860.912 596.865 862.575 596.648 864.166 596.214V604.783C862.792 605.289 861.454 605.615 860.152 605.759C858.923 605.976 857.477 606.085 855.813 606.085ZM898.69 606.085C889.65 606.085 882.817 603.807 878.188 599.251C873.56 594.623 871.246 587.97 871.246 579.292C871.246 570.252 873.777 563.527 878.839 559.116C883.974 554.705 890.808 552.499 899.341 552.499C902.884 552.499 905.849 552.752 908.235 553.258C910.694 553.765 913.044 554.56 915.286 555.645V564.431C911.526 562.551 906.97 561.611 901.619 561.611C895.689 561.611 891.133 562.949 887.951 565.624C884.769 568.228 883.178 572.784 883.178 579.292C883.178 585.439 884.588 589.958 887.409 592.851C890.229 595.671 894.893 597.081 901.402 597.081C906.536 597.081 911.2 596.105 915.395 594.153V603.156C913.008 604.096 910.441 604.819 907.693 605.325C905.017 605.832 902.016 606.085 898.69 606.085ZM943.341 606.085C937.194 606.085 932.457 604.385 929.131 600.987C925.877 597.588 924.25 592.598 924.25 586.017V553.584H936.073V586.017C936.073 589.85 937.013 592.67 938.894 594.478C940.774 596.286 943.666 597.19 947.571 597.19C950.464 597.19 953.14 596.648 955.598 595.563C958.057 594.478 960.19 593.032 961.998 591.224V553.584H973.713V605H962.975L962.432 599.685C960.118 601.493 957.37 603.011 954.188 604.241C951.006 605.47 947.391 606.085 943.341 606.085ZM1000.3 606.085C996.108 606.085 992.927 605.072 990.757 603.047C988.588 600.95 987.503 597.515 987.503 592.743V531.889H999.327V591.658C999.327 593.683 999.688 595.057 1000.41 595.78C1001.13 596.503 1002.22 596.865 1003.67 596.865C1005.4 596.865 1007.06 596.648 1008.66 596.214V604.783C1007.28 605.289 1005.94 605.615 1004.64 605.759C1003.41 605.976 1001.97 606.085 1000.3 606.085ZM1033.96 606.085C1030.7 606.085 1027.67 605.506 1024.85 604.349C1022.1 603.192 1019.89 601.457 1018.23 599.142C1016.57 596.756 1015.74 593.827 1015.74 590.356C1015.74 585.439 1017.4 581.498 1020.73 578.533C1024.12 575.495 1029.33 573.977 1036.35 573.977H1052.83V571.699C1052.83 569.24 1052.44 567.288 1051.64 565.841C1050.92 564.395 1049.54 563.346 1047.52 562.696C1045.57 562.045 1042.67 561.719 1038.84 561.719C1032.77 561.719 1027.09 562.623 1021.81 564.431V555.645C1024.12 554.705 1026.94 553.945 1030.27 553.367C1033.6 552.788 1037.18 552.499 1041.01 552.499C1048.53 552.499 1054.24 554.018 1058.15 557.055C1062.13 560.092 1064.11 565.046 1064.11 571.916V605H1054.03L1053.27 599.793C1051.17 601.818 1048.57 603.373 1045.46 604.458C1042.42 605.542 1038.59 606.085 1033.96 606.085ZM1037.1 597.624C1040.65 597.624 1043.72 597.045 1046.32 595.888C1049 594.659 1051.17 593.032 1052.83 591.007V582.004H1036.56C1033.09 582.004 1030.56 582.691 1028.97 584.065C1027.45 585.366 1026.69 587.391 1026.69 590.139C1026.69 592.815 1027.6 594.731 1029.4 595.888C1031.21 597.045 1033.78 597.624 1037.1 597.624ZM1098.49 606.085C1093.86 606.085 1089.77 605.289 1086.23 603.698C1082.69 602.107 1079.94 599.468 1077.99 595.78C1076.03 592.092 1075.06 587.138 1075.06 580.919C1075.06 574.772 1076.11 569.602 1078.2 565.407C1080.3 561.141 1083.19 557.923 1086.88 555.753C1090.64 553.584 1094.87 552.499 1099.57 552.499C1102.68 552.499 1105.43 552.861 1107.82 553.584C1110.27 554.307 1112.62 555.428 1114.87 556.946V531.889H1126.69V605H1116.6L1115.84 599.902C1113.53 601.999 1111 603.554 1108.25 604.566C1105.5 605.579 1102.25 606.085 1098.49 606.085ZM1101.63 597.19C1106.91 597.19 1111.32 595.382 1114.87 591.766V566.058C1111.47 563.021 1107.2 561.502 1102.07 561.502C1097.08 561.502 1093.32 563.166 1090.79 566.492C1088.25 569.819 1086.99 574.664 1086.99 581.027C1086.99 587.174 1088.15 591.405 1090.46 593.719C1092.85 596.033 1096.57 597.19 1101.63 597.19ZM1163.92 606.085C1154.67 606.085 1147.87 603.771 1143.53 599.142C1139.27 594.514 1137.13 587.897 1137.13 579.292C1137.13 570.686 1139.3 564.07 1143.64 559.441C1147.98 554.813 1154.74 552.499 1163.92 552.499C1173.18 552.499 1179.98 554.813 1184.32 559.441C1188.66 564.07 1190.83 570.686 1190.83 579.292C1190.83 587.897 1188.66 594.514 1184.32 599.142C1180.05 603.771 1173.25 606.085 1163.92 606.085ZM1163.92 596.105C1169.35 596.105 1173.18 594.804 1175.42 592.2C1177.74 589.525 1178.89 585.222 1178.89 579.292C1178.89 573.362 1177.74 569.095 1175.42 566.492C1173.18 563.889 1169.35 562.587 1163.92 562.587C1158.57 562.587 1154.74 563.889 1152.43 566.492C1150.18 569.095 1149.06 573.362 1149.06 579.292C1149.06 585.222 1150.18 589.525 1152.43 592.2C1154.74 594.804 1158.57 596.105 1163.92 596.105ZM1202.33 605V553.584H1213.18L1213.83 559.55C1216.29 557.959 1219.22 556.513 1222.61 555.211C1226.01 553.909 1229.38 553.005 1232.7 552.499V561.502C1230.68 561.864 1228.47 562.406 1226.09 563.129C1223.77 563.78 1221.57 564.54 1219.47 565.407C1217.37 566.203 1215.6 567.034 1214.15 567.902V605H1202.33ZM1254.08 606.085C1250.83 606.085 1247.79 605.506 1244.97 604.349C1242.22 603.192 1240.02 601.457 1238.35 599.142C1236.69 596.756 1235.86 593.827 1235.86 590.356C1235.86 585.439 1237.52 581.498 1240.85 578.533C1244.25 575.495 1249.45 573.977 1256.47 573.977H1272.96V571.699C1272.96 569.24 1272.56 567.288 1271.76 565.841C1271.04 564.395 1269.67 563.346 1267.64 562.696C1265.69 562.045 1262.8 561.719 1258.96 561.719C1252.89 561.719 1247.21 562.623 1241.93 564.431V555.645C1244.25 554.705 1247.07 553.945 1250.39 553.367C1253.72 552.788 1257.3 552.499 1261.13 552.499C1268.65 552.499 1274.37 554.018 1278.27 557.055C1282.25 560.092 1284.24 565.046 1284.24 571.916V605H1274.15L1273.39 599.793C1271.29 601.818 1268.69 603.373 1265.58 604.458C1262.54 605.542 1258.71 606.085 1254.08 606.085ZM1257.23 597.624C1260.77 597.624 1263.85 597.045 1266.45 595.888C1269.12 594.659 1271.29 593.032 1272.96 591.007V582.004H1256.69C1253.22 582.004 1250.68 582.691 1249.09 584.065C1247.57 585.366 1246.82 587.391 1246.82 590.139C1246.82 592.815 1247.72 594.731 1249.53 595.888C1251.33 597.045 1253.9 597.624 1257.23 597.624ZM1322.35 605V535.143H1334.17V605H1322.35ZM1347.88 605V535.143H1360.03L1382.16 580.377L1404.18 535.143H1416.33V605H1404.61V554.343L1385.74 592.96H1378.58L1359.59 554.343V605H1347.88ZM1462.73 606.085C1451.24 606.085 1442.52 602.939 1436.59 596.648C1430.73 590.356 1427.81 581.859 1427.81 571.156C1427.81 563.491 1429.04 556.91 1431.49 551.414C1434.02 545.846 1437.86 541.579 1442.99 538.615C1448.13 535.577 1454.67 534.059 1462.63 534.059C1466.68 534.059 1470.36 534.384 1473.69 535.035C1477.09 535.613 1480.23 536.409 1483.13 537.421V547.726C1480.23 546.569 1477.12 545.701 1473.8 545.123C1470.54 544.472 1467.11 544.147 1463.49 544.147C1454.82 544.147 1448.67 546.461 1445.05 551.089C1441.51 555.717 1439.74 562.406 1439.74 571.156C1439.74 579.328 1441.69 585.547 1445.6 589.814C1449.5 594.008 1455.54 596.105 1463.71 596.105C1467.04 596.105 1470.36 595.852 1473.69 595.346C1477.09 594.767 1480.27 593.9 1483.24 592.743V603.156C1480.34 604.096 1477.2 604.819 1473.8 605.325C1470.47 605.832 1466.78 606.085 1462.73 606.085Z" fill="url(#paint1_linear_518_577)"/>
</g>
<defs>
<filter id="filter0_f_518_577" x="143" y="268" width="1604" height="599" filterUnits="userSpaceOnUse" color-interpolation-filters="sRGB">
<feFlood flood-opacity="0" result="BackgroundImageFix"/>
<feBlend mode="normal" in="SourceGraphic" in2="BackgroundImageFix" result="shape"/>
<feGaussianBlur stdDeviation="90" result="effect1_foregroundBlur_518_577"/>
</filter>
<filter id="filter1_f_518_577" x="383.992" y="605.494" width="325.291" height="138.577" filterUnits="userSpaceOnUse" color-interpolation-filters="sRGB">
<feFlood flood-opacity="0" result="BackgroundImageFix"/>
<feBlend mode="normal" in="SourceGraphic" in2="BackgroundImageFix" result="shape"/>
<feGaussianBlur stdDeviation="21.8806" result="effect1_foregroundBlur_518_577"/>
</filter>
<filter id="filter2_f_518_577" x="376.95" y="117.401" width="224.089" height="201.57" filterUnits="userSpaceOnUse" color-interpolation-filters="sRGB">
<feFlood flood-opacity="0" result="BackgroundImageFix"/>
<feBlend mode="normal" in="SourceGraphic" in2="BackgroundImageFix" result="shape"/>
<feGaussianBlur stdDeviation="10" result="effect1_foregroundBlur_518_577"/>
</filter>
<filter id="filter3_f_518_577" x="723.997" y="769.601" width="276.39" height="260.181" filterUnits="userSpaceOnUse" color-interpolation-filters="sRGB">
<feFlood flood-opacity="0" result="BackgroundImageFix"/>
<feBlend mode="normal" in="SourceGraphic" in2="BackgroundImageFix" result="shape"/>
<feGaussianBlur stdDeviation="4" result="effect1_foregroundBlur_518_577"/>
</filter>
<filter id="filter4_f_518_577" x="1351.17" y="1039.2" width="278.535" height="258.863" filterUnits="userSpaceOnUse" color-interpolation-filters="sRGB">
<feFlood flood-opacity="0" result="BackgroundImageFix"/>
<feBlend mode="normal" in="SourceGraphic" in2="BackgroundImageFix" result="shape"/>
<feGaussianBlur stdDeviation="4" result="effect1_foregroundBlur_518_577"/>
</filter>
<filter id="filter5_f_518_577" x="1783.73" y="519.605" width="279.426" height="257.409" filterUnits="userSpaceOnUse" color-interpolation-filters="sRGB">
<feFlood flood-opacity="0" result="BackgroundImageFix"/>
<feBlend mode="normal" in="SourceGraphic" in2="BackgroundImageFix" result="shape"/>
<feGaussianBlur stdDeviation="4" result="effect1_foregroundBlur_518_577"/>
</filter>
<filter id="filter6_f_518_577" x="-21.2651" y="-79.3945" width="279.426" height="257.409" filterUnits="userSpaceOnUse" color-interpolation-filters="sRGB">
<feFlood flood-opacity="0" result="BackgroundImageFix"/>
<feBlend mode="normal" in="SourceGraphic" in2="BackgroundImageFix" result="shape"/>
<feGaussianBlur stdDeviation="4" result="effect1_foregroundBlur_518_577"/>
</filter>
<filter id="filter7_f_518_577" x="1140.95" y="431.401" width="224.089" height="201.57" filterUnits="userSpaceOnUse" color-interpolation-filters="sRGB">
<feFlood flood-opacity="0" result="BackgroundImageFix"/>
<feBlend mode="normal" in="SourceGraphic" in2="BackgroundImageFix" result="shape"/>
<feGaussianBlur stdDeviation="10" result="effect1_foregroundBlur_518_577"/>
</filter>
<filter id="filter8_f_518_577" x="1734.28" y="243.076" width="221.695" height="206.509" filterUnits="userSpaceOnUse" color-interpolation-filters="sRGB">
<feFlood flood-opacity="0" result="BackgroundImageFix"/>
<feBlend mode="normal" in="SourceGraphic" in2="BackgroundImageFix" result="shape"/>
<feGaussianBlur stdDeviation="10" result="effect1_foregroundBlur_518_577"/>
</filter>
<filter id="filter9_f_518_577" x="126.295" y="415.759" width="171.916" height="158.678" filterUnits="userSpaceOnUse" color-interpolation-filters="sRGB">
<feFlood flood-opacity="0" result="BackgroundImageFix"/>
<feBlend mode="normal" in="SourceGraphic" in2="BackgroundImageFix" result="shape"/>
<feGaussianBlur stdDeviation="12.5" result="effect1_foregroundBlur_518_577"/>
</filter>
<filter id="filter10_f_518_577" x="480.294" y="-94.2417" width="171.916" height="158.678" filterUnits="userSpaceOnUse" color-interpolation-filters="sRGB">
<feFlood flood-opacity="0" result="BackgroundImageFix"/>
<feBlend mode="normal" in="SourceGraphic" in2="BackgroundImageFix" result="shape"/>
<feGaussianBlur stdDeviation="12.5" result="effect1_foregroundBlur_518_577"/>
</filter>
<filter id="filter11_f_518_577" x="934.884" y="-42.3835" width="161.256" height="171.403" filterUnits="userSpaceOnUse" color-interpolation-filters="sRGB">
<feFlood flood-opacity="0" result="BackgroundImageFix"/>
<feBlend mode="normal" in="SourceGraphic" in2="BackgroundImageFix" result="shape"/>
<feGaussianBlur stdDeviation="12.5" result="effect1_foregroundBlur_518_577"/>
</filter>
<filter id="filter12_f_518_577" x="847.068" y="316.212" width="112.769" height="106.353" filterUnits="userSpaceOnUse" color-interpolation-filters="sRGB">
<feFlood flood-opacity="0" result="BackgroundImageFix"/>
<feBlend mode="normal" in="SourceGraphic" in2="BackgroundImageFix" result="shape"/>
<feGaussianBlur stdDeviation="9" result="effect1_foregroundBlur_518_577"/>
</filter>
<filter id="filter13_f_518_577" x="1539.95" y="395.707" width="111.885" height="107.161" filterUnits="userSpaceOnUse" color-interpolation-filters="sRGB">
<feFlood flood-opacity="0" result="BackgroundImageFix"/>
<feBlend mode="normal" in="SourceGraphic" in2="BackgroundImageFix" result="shape"/>
<feGaussianBlur stdDeviation="9" result="effect1_foregroundBlur_518_577"/>
</filter>
<filter id="filter14_f_518_577" x="-61.9631" y="197.708" width="112.769" height="106.353" filterUnits="userSpaceOnUse" color-interpolation-filters="sRGB">
<feFlood flood-opacity="0" result="BackgroundImageFix"/>
<feBlend mode="normal" in="SourceGraphic" in2="BackgroundImageFix" result="shape"/>
<feGaussianBlur stdDeviation="9" result="effect1_foregroundBlur_518_577"/>
</filter>
<filter id="filter15_f_518_577" x="1160.95" y="974.707" width="111.885" height="107.161" filterUnits="userSpaceOnUse" color-interpolation-filters="sRGB">
<feFlood flood-opacity="0" result="BackgroundImageFix"/>
<feBlend mode="normal" in="SourceGraphic" in2="BackgroundImageFix" result="shape"/>
<feGaussianBlur stdDeviation="9" result="effect1_foregroundBlur_518_577"/>
</filter>
<filter id="filter16_f_518_577" x="1642.71" y="897.302" width="169.068" height="164.541" filterUnits="userSpaceOnUse" color-interpolation-filters="sRGB">
<feFlood flood-opacity="0" result="BackgroundImageFix"/>
<feBlend mode="normal" in="SourceGraphic" in2="BackgroundImageFix" result="shape"/>
<feGaussianBlur stdDeviation="12.5" result="effect1_foregroundBlur_518_577"/>
</filter>
<filter id="filter17_f_518_577" x="1282.82" y="721.981" width="167.514" height="166.077" filterUnits="userSpaceOnUse" color-interpolation-filters="sRGB">
<feFlood flood-opacity="0" result="BackgroundImageFix"/>
<feBlend mode="normal" in="SourceGraphic" in2="BackgroundImageFix" result="shape"/>
<feGaussianBlur stdDeviation="12.5" result="effect1_foregroundBlur_518_577"/>
</filter>
<linearGradient id="paint0_linear_518_577" x1="1979" y1="-39.4998" x2="-1.16332e-05" y2="1112.5" gradientUnits="userSpaceOnUse">
<stop stop-color="#E8438A"/>
<stop offset="0.38" stop-color="#AB3266"/>
<stop offset="0.840026" stop-color="#82264D"/>
</linearGradient>
<linearGradient id="paint1_linear_518_577" x1="699" y1="567" x2="1501" y2="567" gradientUnits="userSpaceOnUse">
<stop offset="0.00946803" stop-color="#FFA6CC"/>
<stop offset="0.709141" stop-color="#FF70AE"/>
</linearGradient>
<clipPath id="clip0_518_577">
<rect width="1920" height="1080" fill="white"/>
</clipPath>
</defs>
</svg>
