<svg width="77" height="65" viewBox="0 0 77 65" fill="none" xmlns="http://www.w3.org/2000/svg">
<g clip-path="url(#clip0_517_571)">
<g filter="url(#filter0_f_517_571)">
<ellipse cx="39.3716" cy="52.5049" rx="27.3575" ry="5.8743" fill="#32091B" fill-opacity="0.8"/>
</g>
<path d="M38.5547 4C22.4602 4 10 19.3157 10 33.5931C10 42.4191 17.5281 53.3218 39.8526 52.543C61.1389 51.8005 68.4073 45.7937 68.4073 34.3718C68.4073 18.2774 56.2067 4 38.5547 4Z" fill="#FF8DBE"/>
<path d="M57.4083 13.216C62.94 18.2138 64.6974 25.2837 61.3335 29.0069C57.9696 32.7302 50.7582 31.697 45.2265 26.6992C39.6948 21.7014 37.9374 14.6316 41.3013 10.9083C44.6652 7.18505 51.8765 8.21825 57.4083 13.216Z" fill="#FFA6CC"/>
<path d="M65.8115 40.8614C65.5519 26.5841 61.6648 17.4985 51.7937 8.67249C61.9176 14.1238 69.4457 24.767 65.8115 40.8614Z" fill="white"/>
<ellipse cx="39.593" cy="48.3895" rx="17.1328" ry="2.85547" fill="#AC386A"/>
<path d="M20.1239 14.9027L26.8732 24.5075L16.2301 26.3246M54.3896 13.8644L46.6019 24.5075L57.2451 27.3629M26.8732 36.9677L30.5075 29.6992L36.2184 36.1889L40.891 29.6992L45.8232 36.9677M10 33.5931C10 19.3157 22.4602 4 38.5547 4C56.2067 4 68.4073 18.2774 68.4073 34.3718C68.4073 45.7937 61.1389 51.8005 39.8526 52.543C17.5281 53.3218 10 42.4191 10 33.5931Z" stroke="#131313" stroke-width="1.03835" stroke-linecap="round" stroke-linejoin="round"/>
</g>
<defs>
<filter id="filter0_f_517_571" x="1.94393" y="36.5604" width="74.8553" height="31.8891" filterUnits="userSpaceOnUse" color-interpolation-filters="sRGB">
<feFlood flood-opacity="0" result="BackgroundImageFix"/>
<feBlend mode="normal" in="SourceGraphic" in2="BackgroundImageFix" result="shape"/>
<feGaussianBlur stdDeviation="5.03512" result="effect1_foregroundBlur_517_571"/>
</filter>
<clipPath id="clip0_517_571">
<rect width="77" height="65" fill="white"/>
</clipPath>
</defs>
</svg>
