<svg width="58" height="58" viewBox="0 0 58 58" fill="none" xmlns="http://www.w3.org/2000/svg">
<g clip-path="url(#clip0_517_571)">
<g filter="url(#filter0_f_517_571)">
<ellipse cx="29.3716" cy="50.5049" rx="27.3575" ry="5.8743" fill="#32091B" fill-opacity="0.8"/>
</g>
<path d="M28.5547 2C12.4602 2 0 17.3157 0 31.5931C0 40.4191 7.52806 51.3218 29.8526 50.543C51.1389 49.8005 58.4073 43.7937 58.4073 32.3718C58.4073 16.2774 46.2067 2 28.5547 2Z" fill="#FF8DBE"/>
<path d="M47.4083 11.216C52.94 16.2138 54.6974 23.2837 51.3335 27.0069C47.9696 30.7302 40.7582 29.697 35.2265 24.6992C29.6948 19.7014 27.9374 12.6316 31.3013 8.90833C34.6652 5.18505 41.8765 6.21825 47.4083 11.216Z" fill="#FFA6CC"/>
<path d="M55.8115 38.8614C55.5519 24.5841 51.6648 15.4985 41.7937 6.67249C51.9176 12.1238 59.4457 22.767 55.8115 38.8614Z" fill="white"/>
<ellipse cx="29.593" cy="46.3895" rx="17.1328" ry="2.85547" fill="#AC386A"/>
<path d="M10.1239 12.9027L16.8732 22.5075L6.23012 24.3246M44.3896 11.8644L36.6019 22.5075L47.2451 25.3629M16.8732 34.9677L20.5075 27.6992L26.2184 34.1889L30.891 27.6992L35.8232 34.9677M0 31.5931C0 17.3157 12.4602 2 28.5547 2C46.2067 2 58.4073 16.2774 58.4073 32.3718C58.4073 43.7937 51.1389 49.8005 29.8526 50.543C7.52806 51.3218 0 40.4191 0 31.5931Z" stroke="#131313" stroke-width="1.03835" stroke-linecap="round" stroke-linejoin="round"/>
</g>
<defs>
<filter id="filter0_f_517_571" x="-8.05607" y="34.5604" width="74.8553" height="31.8891" filterUnits="userSpaceOnUse" color-interpolation-filters="sRGB">
<feFlood flood-opacity="0" result="BackgroundImageFix"/>
<feBlend mode="normal" in="SourceGraphic" in2="BackgroundImageFix" result="shape"/>
<feGaussianBlur stdDeviation="5.03512" result="effect1_foregroundBlur_517_571"/>
</filter>
<clipPath id="clip0_517_571">
<rect width="58" height="58" fill="white"/>
</clipPath>
</defs>
</svg>
